<?xml version="1.0" standalone="no"?>
<!DOCTYPE svg PUBLIC "-//W3C//DTD SVG 20010904//EN"
 "http://www.w3.org/TR/2001/REC-SVG-20010904/DTD/svg10.dtd">
<svg version="1.0" xmlns="http://www.w3.org/2000/svg"
 width="270.000000pt" height="270.000000pt" viewBox="0 0 270.000000 270.000000"
 preserveAspectRatio="xMidYMid meet">
<metadata>
Created by potrace 1.11, written by Peter Selinger 2001-2013
</metadata>
<g transform="translate(0.000000,270.000000) scale(0.100000,-0.100000)"
fill="#000000" stroke="none">
<path d="M1255 2320 c-60 -10 -164 -21 -230 -25 -66 -3 -130 -8 -141 -10 -46
-10 -36 -66 23 -126 l35 -37 -106 -178 c-183 -307 -426 -811 -426 -883 0 -24
53 -124 83 -158 22 -25 75 -31 121 -13 54 20 357 80 440 86 48 4 89 11 92 16
22 35 -46 120 -111 138 -57 16 -184 8 -315 -19 -52 -11 -96 -19 -97 -17 -2 2
31 73 74 157 l78 154 110 22 c61 12 151 25 200 28 138 9 139 9 132 52 -15 87
-106 131 -249 119 l-80 -7 33 58 c113 201 196 345 224 388 l32 50 134 24 c74
13 180 27 237 31 56 3 107 11 113 17 27 27 -28 115 -88 139 -44 19 -182 16
-318 -6z"/>
<path d="M1790 1755 c-107 -13 -248 -27 -313 -31 -133 -8 -153 -17 -136 -62
16 -42 68 -90 118 -109 33 -13 74 -18 143 -18 54 0 98 -2 98 -4 0 -1 -26 -46
-58 -100 -97 -160 -176 -306 -270 -501 -180 -372 -205 -480 -130 -565 48 -56
70 -48 109 38 72 155 221 450 310 612 141 259 226 427 239 476 24 89 19 85
119 98 50 7 134 13 186 13 71 0 99 4 110 15 19 19 19 20 -8 67 -15 27 -38 48
-71 65 -68 35 -192 37 -446 6z"/>
</g>
</svg>
